name ./resultDataOpenSim/trcMotMarkerGrf/sub09/grf-15-01.mot
datacolumns 19
datarows 25
range 0.50800000 0.60400000
endheader

                time	     ground_force_vx	     ground_force_vy	     ground_force_vz	     ground_force_px	     ground_force_py	     ground_force_pz	   l_ground_force_vx	   l_ground_force_vy	   l_ground_force_vz	   l_ground_force_px	   l_ground_force_py	   l_ground_force_pz	     ground_torque_x	     ground_torque_y	     ground_torque_z	   l_ground_torque_x	   l_ground_torque_y	   l_ground_torque_z	
          0.50800000	         46.69908274	        515.99558726	        -30.27961830	         -0.66461060	          0.00000000	          0.08569653	          0.00000000	          0.00000000	          0.00000000	          0.00000000	          0.00000000	          0.00000000	          0.00000000	          6.36135648	          0.00000000	          0.00000000	          0.00000000	          0.00000000	
          0.51200000	         49.61410556	        523.88337452	        -33.81570803	         -0.66311549	          0.00000000	          0.08669229	          0.00000000	          0.00000000	          0.00000000	          0.00000000	          0.00000000	          0.00000000	          0.00000000	          6.23573971	          0.00000000	          0.00000000	          0.00000000	          0.00000000	
          0.51600000	         53.12979417	        532.47960564	        -37.34234207	         -0.66173363	          0.00000000	          0.08758040	          0.00000000	          0.00000000	          0.00000000	          0.00000000	          0.00000000	          0.00000000	          0.00000000	          6.07465818	          0.00000000	          0.00000000	          0.00000000	          0.00000000	
          0.52000000	         57.10430117	        541.64282127	        -40.75949992	         -0.66026761	          0.00000000	          0.08838916	          0.00000000	          0.00000000	          0.00000000	          0.00000000	          0.00000000	          0.00000000	          0.00000000	          5.89264477	          0.00000000	          0.00000000	          0.00000000	          0.00000000	
          0.52400000	         61.38743292	        551.44455111	        -43.97857319	         -0.65873115	          0.00000000	          0.08909459	          0.00000000	          0.00000000	          0.00000000	          0.00000000	          0.00000000	          0.00000000	          0.00000000	          5.70268158	          0.00000000	          0.00000000	          0.00000000	          0.00000000	
          0.52800000	         65.84608353	        562.15647423	        -46.90568054	         -0.65729246	          0.00000000	          0.08962353	          0.00000000	          0.00000000	          0.00000000	          0.00000000	          0.00000000	          0.00000000	          0.00000000	          5.51527354	          0.00000000	          0.00000000	          0.00000000	          0.00000000	
          0.53200000	         70.36138941	        574.00173164	        -49.44317109	         -0.65605115	          0.00000000	          0.08992888	          0.00000000	          0.00000000	          0.00000000	          0.00000000	          0.00000000	          0.00000000	          0.00000000	          5.33869519	          0.00000000	          0.00000000	          0.00000000	          0.00000000	
          0.53600000	         74.82639158	        586.97063935	        -51.49186340	         -0.65491966	          0.00000000	          0.09002464	          0.00000000	          0.00000000	          0.00000000	          0.00000000	          0.00000000	          0.00000000	          0.00000000	          5.18038544	          0.00000000	          0.00000000	          0.00000000	          0.00000000	
          0.54000000	         79.17187352	        600.89423928	        -52.94440160	         -0.65374368	          0.00000000	          0.08994521	          0.00000000	          0.00000000	          0.00000000	          0.00000000	          0.00000000	          0.00000000	          0.00000000	          5.04891875	          0.00000000	          0.00000000	          0.00000000	          0.00000000	
          0.54400000	         83.40776337	        615.63375294	        -53.69683472	         -0.65247355	          0.00000000	          0.08970139	          0.00000000	          0.00000000	          0.00000000	          0.00000000	          0.00000000	          0.00000000	          0.00000000	          4.95546015	          0.00000000	          0.00000000	          0.00000000	          0.00000000	
          0.54800000	         87.63332947	        631.13398877	        -53.68098948	         -0.65119684	          0.00000000	          0.08928879	          0.00000000	          0.00000000	          0.00000000	          0.00000000	          0.00000000	          0.00000000	          0.00000000	          4.91370000	          0.00000000	          0.00000000	          0.00000000	          0.00000000	
          0.55200000	         91.99084331	        647.30024895	        -52.88589861	         -0.65000614	          0.00000000	          0.08872002	          0.00000000	          0.00000000	          0.00000000	          0.00000000	          0.00000000	          0.00000000	          0.00000000	          4.93796164	          0.00000000	          0.00000000	          0.00000000	          0.00000000	
          0.55600000	         96.59664863	        663.88755438	        -51.34867649	         -0.64889253	          0.00000000	          0.08804021	          0.00000000	          0.00000000	          0.00000000	          0.00000000	          0.00000000	          0.00000000	          0.00000000	          5.03995809	          0.00000000	          0.00000000	          0.00000000	          0.00000000	
          0.56000000	        101.50464867	        680.56588456	        -49.13422775	         -0.64778237	          0.00000000	          0.08730685	          0.00000000	          0.00000000	          0.00000000	          0.00000000	          0.00000000	          0.00000000	          0.00000000	          5.22513995	          0.00000000	          0.00000000	          0.00000000	          0.00000000	
          0.56400000	        106.71288303	        697.09014565	        -46.33226354	         -0.64664245	          0.00000000	          0.08655374	          0.00000000	          0.00000000	          0.00000000	          0.00000000	          0.00000000	          0.00000000	          0.00000000	          5.48969462	          0.00000000	          0.00000000	          0.00000000	          0.00000000	
          0.56800000	        112.17766267	        713.35784379	        -43.07071525	         -0.64552874	          0.00000000	          0.08578189	          0.00000000	          0.00000000	          0.00000000	          0.00000000	          0.00000000	          0.00000000	          0.00000000	          5.81913051	          0.00000000	          0.00000000	          0.00000000	          0.00000000	
          0.57200000	        117.81375703	        729.28839871	        -39.52156831	         -0.64451604	          0.00000000	          0.08498597	          0.00000000	          0.00000000	          0.00000000	          0.00000000	          0.00000000	          0.00000000	          0.00000000	          6.18902008	          0.00000000	          0.00000000	          0.00000000	          0.00000000	
          0.57600000	        123.49855667	        744.69599302	        -35.88188802	         -0.64359344	          0.00000000	          0.08418310	          0.00000000	          0.00000000	          0.00000000	          0.00000000	          0.00000000	          0.00000000	          0.00000000	          6.56787608	          0.00000000	          0.00000000	          0.00000000	          0.00000000	
          0.58000000	        129.10015708	        759.31484979	        -32.34573311	         -0.64268171	          0.00000000	          0.08340656	          0.00000000	          0.00000000	          0.00000000	          0.00000000	          0.00000000	          0.00000000	          0.00000000	          6.92147244	          0.00000000	          0.00000000	          0.00000000	          0.00000000	
          0.58400000	        134.52408573	        772.91903137	        -29.09349564	         -0.64173907	          0.00000000	          0.08267413	          0.00000000	          0.00000000	          0.00000000	          0.00000000	          0.00000000	          0.00000000	          0.00000000	          7.21755819	          0.00000000	          0.00000000	          0.00000000	          0.00000000	
          0.58800000	        139.76030340	        785.34948508	        -26.28684884	         -0.64080966	          0.00000000	          0.08197959	          0.00000000	          0.00000000	          0.00000000	          0.00000000	          0.00000000	          0.00000000	          0.00000000	          7.43009781	          0.00000000	          0.00000000	          0.00000000	          0.00000000	
          0.59200000	        144.89997532	        796.40315413	        -24.03969902	         -0.63993375	          0.00000000	          0.08132293	          0.00000000	          0.00000000	          0.00000000	          0.00000000	          0.00000000	          0.00000000	          0.00000000	          7.54270429	          0.00000000	          0.00000000	          0.00000000	          0.00000000	
          0.59600000	        150.09025057	        805.80549547	        -22.37496982	         -0.63903873	          0.00000000	          0.08073442	          0.00000000	          0.00000000	          0.00000000	          0.00000000	          0.00000000	          0.00000000	          0.00000000	          7.55121143	          0.00000000	          0.00000000	          0.00000000	          0.00000000	
          0.60000000	        155.46655327	        813.41345139	        -21.20406338	         -0.63802151	          0.00000000	          0.08023301	          0.00000000	          0.00000000	          0.00000000	          0.00000000	          0.00000000	          0.00000000	          0.00000000	          7.46497864	          0.00000000	          0.00000000	          0.00000000	          0.00000000	
          0.60400000	        161.14444221	        819.37891672	        -20.34712986	         -0.63697577	          0.00000000	          0.07977626	          0.00000000	          0.00000000	          0.00000000	          0.00000000	          0.00000000	          0.00000000	          0.00000000	          7.30600834	          0.00000000	          0.00000000	          0.00000000	          0.00000000	
